<?xml version="1.0" encoding="iso-8859-1"?>
<!-- Generator: Adobe Illustrator 19.0.0, SVG Export Plug-In . SVG Version: 6.00 Build 0)  -->
<svg version="1.1" id="Capa_1" xmlns="http://www.w3.org/2000/svg" xmlns:xlink="http://www.w3.org/1999/xlink" x="0px" y="0px"
	 viewBox="0 0 512 512" style="enable-background:new 0 0 512 512;" xml:space="preserve">
<path style="fill:#F93E86;" d="M512,256c0,64.543-23.886,123.528-63.31,168.552c-16.363,18.693-35.401,34.973-56.508,48.253
	C352.737,497.643,306.051,512,256,512c-40.709,0-79.182-9.498-113.351-26.394l-0.01-0.01c-7.847-3.887-15.464-8.15-22.821-12.79
	c-21.107-13.281-40.135-29.55-56.498-48.243l-0.01-0.01C23.886,379.528,0,320.543,0,256C0,114.615,114.615,0,256,0
	S512,114.615,512,256z"/>
<rect x="173.443" y="50.81" style="fill:#D0FBFD;" width="165.104" height="177.288"/>
<path style="fill:#A0F6FA;" d="M338.547,68.722H205.406V50.813h-31.963v177.288h31.963v-87.853c0-18.728,15.181-33.91,33.91-33.91
	h99.231V68.722z"/>
<path style="fill:#D0FBFD;" d="M455.993,370.803c0,18.62-2.55,36.655-7.304,53.75c-16.363,18.693-35.401,34.973-56.508,48.253
	C352.737,497.643,306.051,512,256,512s-96.737-14.357-136.182-39.194c-21.107-13.281-40.145-29.56-56.508-48.253
	c-4.754-17.095-7.304-35.129-7.304-53.75c0-110.456,89.537-199.993,199.993-199.993
	C366.446,170.809,455.993,260.347,455.993,370.803z"/>
<path style="fill:#A0F6FA;" d="M205.406,177.267v7.335c-11.483,6.51-22.215,15.172-31.963,25.652
	c-33.907,36.456-55.871,94.793-55.871,160.549c0,42.715,9.268,82.307,25.067,114.792c-7.847-3.887-15.464-8.15-22.821-12.79
	c-21.107-13.281-40.135-29.55-56.498-48.243l-0.01-0.01c-4.754-17.105-7.304-35.129-7.304-53.75
	c0-81.021,48.17-150.779,117.436-182.209C183.662,183.944,194.351,180.14,205.406,177.267z"/>
<path style="fill:#E20A39;" d="M104.091,359.257c0,93.965,62.776,138.375,156.742,138.375s123.813-19.892,123.813-113.856
	c0-15.146-10.032-4.281-13.751-18.248c-36.518,8.865,7.102-23.405-46.637-23.405c-67.209,0-67.209-34.593-134.407-34.593
	c-52.377,0-63.933,21.005-98.3,30.292C90.989,343.441,104.091,353.484,104.091,359.257z"/>
<path style="fill:#F91E43;" d="M426.141,370.803c0,38.264-12.633,73.582-33.959,102.003C352.737,497.643,306.051,512,256,512
	s-96.737-14.357-136.182-39.194c-21.326-28.421-33.97-63.739-33.97-102.003c0-15.151,1.985-29.832,5.705-43.792
	c11.013,2.664,19.696,6.562,27.909,10.679c19.017,9.519,35.589,20.302,73.112,20.302c67.208,0,67.208-34.597,134.405-34.597
	c52.381,0,63.937,21.002,98.304,30.292C425.848,359.309,426.141,365.025,426.141,370.803z"/>
<path style="fill:#D0FBFD;" d="M349.118,0.001H162.875c-7.68,0-13.906,6.226-13.906,13.906v60.835
	c0,7.68,6.225,13.906,13.906,13.906h186.244c7.68,0,13.906-6.226,13.906-13.906V13.907C363.025,6.227,356.798,0.001,349.118,0.001z"
	/>
<path style="fill:#A0F6FA;" d="M185.725,74.742V13.907c0-7.68,6.226-13.906,13.906-13.906h-36.755
	c-7.68,0-13.906,6.226-13.906,13.906v60.835c0,7.68,6.226,13.906,13.906,13.906h36.755
	C191.951,88.647,185.725,82.422,185.725,74.742z"/>
<g>
	<circle style="fill:#E20A39;" cx="318.704" cy="404.313" r="17.836"/>
	<circle style="fill:#E20A39;" cx="190.056" cy="457.289" r="11.892"/>
	<circle style="fill:#E20A39;" cx="256" cy="391.732" r="11.892"/>
	<circle style="fill:#E20A39;" cx="263.544" cy="461.939" r="5.945"/>
	<circle style="fill:#E20A39;" cx="144.656" cy="385.4" r="5.945"/>
	<path style="fill:#E20A39;" d="M142.649,485.606l-0.01-0.01c-7.847-3.887-15.464-8.15-22.821-12.79
		c-21.326-28.421-33.97-63.739-33.97-102.003c0-15.151,1.985-29.832,5.705-43.792c11.013,2.664,19.696,6.562,27.909,10.679
		c-1.243,10.762-1.891,21.838-1.891,33.113C117.572,413.518,126.851,453.12,142.649,485.606z"/>
</g>
<g>
	<path style="fill:#FFFFFF;" d="M332.408,64.864h-4.712c-5.565,0-10.076-4.511-10.076-10.076V28.455
		c0-5.565,4.511-10.076,10.076-10.076h4.712c5.565,0,10.076,4.511,10.076,10.076v26.334
		C342.484,60.353,337.973,64.864,332.408,64.864z"/>
	<path style="fill:#FFFFFF;" d="M315.111,163.42h-4.712c-5.565,0-10.076-4.511-10.076-10.076V127.01
		c0-5.565,4.511-10.076,10.076-10.076h4.712c5.565,0,10.076,4.511,10.076,10.076v26.334
		C325.187,158.908,320.676,163.42,315.111,163.42z"/>
	<circle style="fill:#FFFFFF;" cx="370.228" cy="285.038" r="29.188"/>
	<circle style="fill:#FFFFFF;" cx="322.664" cy="246.115" r="18.923"/>
</g>
<g>
	<circle style="fill:#E20A39;" cx="265.644" cy="206.148" r="14.611"/>
	<circle style="fill:#E20A39;" cx="214.204" cy="261.768" r="9.143"/>
	<circle style="fill:#E20A39;" cx="300.931" cy="292.07" r="9.143"/>
</g>
<g>
</g>
<g>
</g>
<g>
</g>
<g>
</g>
<g>
</g>
<g>
</g>
<g>
</g>
<g>
</g>
<g>
</g>
<g>
</g>
<g>
</g>
<g>
</g>
<g>
</g>
<g>
</g>
<g>
</g>
</svg>
