<svg id="Layer_1" enable-background="new 0 0 512 512" height="512" viewBox="0 0 512 512" width="512" xmlns="http://www.w3.org/2000/svg"><g><path d="m256 21.996c-135.311 0-245.002 109.691-245.002 245.002 0 121.533 88.495 222.379 204.558 241.66l31.693 3.17c2.906.102 5.82.172 8.75.172 2.931 0 5.845-.07 8.75-.172l31.693-3.17c116.063-19.282 204.559-120.128 204.559-241.66.001-135.311-109.69-245.002-245.001-245.002z" fill="#73c3f9"/><g fill="#a98bbc"><path d="m84.506 205.91 15.49-7.223-7.814-14.215-14.516 6.769c-4.051 1.889-5.803 6.704-3.914 10.755 1.888 4.05 6.703 5.803 10.754 3.914z"/><path d="m128.3 285.572 15.49-7.223-7.815-14.215-14.516 6.769c-4.051 1.889-5.803 6.704-3.914 10.755s6.704 5.803 10.755 3.914z"/><path d="m99.104 232.464 15.49-7.223-7.815-14.215-14.516 6.769c-4.051 1.889-5.803 6.704-3.914 10.755s6.704 5.803 10.755 3.914z"/><path d="m55.309 152.801 15.49-7.223-7.815-14.215-14.516 6.769c-4.051 1.889-5.803 6.704-3.914 10.755 1.89 4.051 6.704 5.803 10.755 3.914z"/><path d="m113.702 259.018 15.49-7.223-7.814-14.215-14.516 6.769c-4.051 1.889-5.803 6.704-3.914 10.755 1.888 4.05 6.703 5.803 10.754 3.914z"/><path d="m69.907 179.356 15.49-7.223-7.815-14.215-14.516 6.769c-4.051 1.889-5.803 6.704-3.914 10.755 1.89 4.05 6.704 5.803 10.755 3.914z"/><path d="m11.515 73.14 15.49-7.223-7.815-14.215-14.515 6.768c-4.051 1.889-5.803 6.704-3.914 10.755 1.888 4.051 6.703 5.804 10.754 3.915z"/><path d="m103.403 30.291 15.49-7.223c4.051-1.889 5.803-6.704 3.914-10.755s-6.704-5.803-10.755-3.914l-14.516 6.769z"/><path d="m26.113 99.693 15.49-7.223-7.815-14.215-14.516 6.769c-4.051 1.889-5.803 6.704-3.914 10.755s6.704 5.803 10.755 3.914z"/><path d="m40.711 126.248 15.49-7.223-7.815-14.215-14.516 6.769c-4.051 1.889-5.803 6.704-3.914 10.755 1.889 4.05 6.704 5.803 10.755 3.914z"/><path d="m123.011 36.651-14.516 6.769 5.866 15.123 15.49-7.223c4.051-1.889 5.803-6.704 3.914-10.755s-6.704-5.803-10.754-3.914z"/><path d="m166.843 149.656-14.516 6.769 5.866 15.123 15.49-7.223c4.051-1.889 5.803-6.704 3.914-10.755-1.888-4.05-6.703-5.803-10.754-3.914z"/><path d="m144.927 93.153-14.516 6.769 5.866 15.123 15.49-7.223c4.051-1.889 5.803-6.704 3.915-10.755-1.89-4.05-6.704-5.803-10.755-3.914z"/><path d="m155.885 121.405-14.516 6.769 5.866 15.123 15.49-7.223c4.051-1.889 5.803-6.704 3.915-10.755-1.889-4.051-6.704-5.803-10.755-3.914z"/><path d="m133.969 64.902-14.516 6.769 5.866 15.123 15.49-7.223c4.051-1.889 5.803-6.704 3.914-10.755-1.888-4.05-6.703-5.803-10.754-3.914z"/><path d="m188.759 206.159-14.516 6.769 5.866 15.123 15.49-7.223c4.051-1.889 5.803-6.704 3.914-10.755-1.888-4.05-6.703-5.803-10.754-3.914z"/><path d="m177.801 177.908-14.516 6.769 5.866 15.123 15.49-7.223c4.051-1.889 5.803-6.704 3.914-10.755-1.888-4.051-6.703-5.803-10.754-3.914z"/><path d="m210.675 262.662-14.516 6.769 5.866 15.123 15.49-7.223c4.051-1.889 5.803-6.704 3.914-10.755-1.888-4.051-6.703-5.803-10.754-3.914z"/><path d="m199.718 234.411-14.516 6.769 5.866 15.123 15.49-7.223c4.051-1.889 5.803-6.704 3.914-10.755s-6.703-5.803-10.754-3.914z"/><path d="m150.573 290.688-14.516 6.769c-4.051 1.889-5.803 6.704-3.914 10.755s6.704 5.803 10.755 3.914l15.49-7.223z"/></g><path d="m54.509 41.422c2.612.552 4.945 1.919 6.749 3.955l5.65 6.38-1.256-8.429c-.4-2.69.052-5.357 1.308-7.712l18.99-35.602c-.462-.015-.927-.008-1.396.039-25.82 2.619-49.995 13.892-68.597 31.988-.338.329-.642.681-.927 1.044z" fill="#6c5475"/><path d="m183.257 287.244c-2.128-.673-4.048-1.921-5.551-3.61l-5.613-6.305 1.222 8.353c.328 2.237.05 4.51-.803 6.573l-9.54 23.084 7.017 12.764c4.474-6.585 10.721-12.088 18.46-15.697s15.971-4.857 23.89-4.051l-5.268-13.58z" fill="#6c5475"/><path d="m64.369 47.837 109.046 233.849c1.777 3.811 5.071 6.702 9.08 7.97l25.75 8.142-112.93-291.149c-1.695-4.369-6.099-7.068-10.762-6.595-.534.054-1.063.134-1.596.196l-18.228 34.176c-2.222 4.165-2.355 9.132-.36 13.411z" fill="#876d93"/><path d="m55.031 38.948-37.898-8.004c-.389.368-.791.722-1.176 1.097-3.359 3.268-4.122 8.377-1.865 12.483l150.443 273.656 10.315-24.96c1.606-3.886 1.509-8.268-.268-12.079l-109.046-233.849c-1.995-4.278-5.886-7.368-10.505-8.344z" fill="#543e5b"/><path d="m201.007 381.392 32.218-15.023c-.95-11.283 3.174-22.496 11.219-30.477 2.325-2.307 2.618-5.957.844-8.71-12.18-18.898-36.746-26.378-57.694-16.61s-31.009 33.395-24.361 54.873c.969 3.129 3.953 5.25 7.215 4.952 11.286-1.033 22.526 3.015 30.559 10.995z" fill="#c67859"/><path d="m222.659 353.877c-7.576 1.861-15.404-1.865-18.549-9.004l-3.102-7.04c-6.383-14.486 5.237-25.298 13.641-30.874-8.869-1.534-18.277-.479-27.053 3.613-20.948 9.768-31.009 33.395-24.361 54.873.969 3.129 3.953 5.25 7.215 4.952 11.285-1.033 22.525 3.015 30.558 10.995l32.218-15.023c-.371-4.406.042-8.798 1.15-12.995-4.274-.718-8.268-.344-11.717.503z" fill="#b26847"/><path d="m427.495 205.91-15.49-7.223 7.814-14.215 14.516 6.769c4.051 1.889 5.803 6.704 3.914 10.755-1.889 4.05-6.704 5.803-10.754 3.914z" fill="#a98bbc"/><path d="m383.7 285.572-15.49-7.223 7.815-14.215 14.516 6.769c4.051 1.889 5.803 6.704 3.914 10.755s-6.704 5.803-10.755 3.914z" fill="#a98bbc"/><path d="m412.897 232.464-15.49-7.223 7.815-14.215 14.516 6.769c4.051 1.889 5.803 6.704 3.914 10.755-1.89 4.051-6.704 5.803-10.755 3.914z" fill="#a98bbc"/><path d="m456.691 152.801-15.49-7.223 7.815-14.215 14.516 6.769c4.051 1.889 5.803 6.704 3.914 10.755-1.89 4.051-6.704 5.803-10.755 3.914z" fill="#a98bbc"/><path d="m398.298 259.018-15.49-7.223 7.814-14.215 14.516 6.769c4.051 1.889 5.803 6.704 3.914 10.755-1.888 4.05-6.703 5.803-10.754 3.914z" fill="#a98bbc"/><path d="m442.093 179.356-15.49-7.223 7.815-14.215 14.516 6.769c4.051 1.889 5.803 6.704 3.914 10.755-1.89 4.05-6.704 5.803-10.755 3.914z" fill="#a98bbc"/><path d="m500.485 73.14-15.49-7.223 7.815-14.215 14.516 6.769c4.051 1.889 5.803 6.704 3.914 10.755-1.889 4.05-6.704 5.803-10.755 3.914z" fill="#a98bbc"/><path d="m408.597 30.291-15.49-7.223c-4.051-1.889-5.803-6.704-3.914-10.755s6.704-5.803 10.755-3.914l14.516 6.769z" fill="#a98bbc"/><path d="m485.887 99.693-15.49-7.223 7.815-14.215 14.516 6.769c4.051 1.889 5.803 6.704 3.914 10.755s-6.704 5.803-10.755 3.914z" fill="#a98bbc"/><path d="m471.289 126.248-15.49-7.223 7.815-14.215 14.516 6.769c4.051 1.889 5.803 6.704 3.914 10.755-1.889 4.05-6.704 5.803-10.755 3.914z" fill="#a98bbc"/><path d="m388.99 36.651 14.516 6.769-5.866 15.123-15.49-7.223c-4.051-1.889-5.803-6.704-3.914-10.755 1.888-4.051 6.703-5.803 10.754-3.914z" fill="#a98bbc"/><path d="m345.157 149.656 14.516 6.769-5.866 15.123-15.49-7.223c-4.051-1.889-5.803-6.704-3.914-10.755 1.888-4.05 6.703-5.803 10.754-3.914z" fill="#a98bbc"/><path d="m367.073 93.153 14.516 6.769-5.866 15.123-15.49-7.223c-4.051-1.889-5.803-6.704-3.914-10.755 1.889-4.05 6.703-5.803 10.754-3.914z" fill="#a98bbc"/><path d="m356.115 121.405 14.516 6.769-5.866 15.123-15.49-7.223c-4.051-1.889-5.803-6.704-3.914-10.755 1.888-4.051 6.703-5.803 10.754-3.914z" fill="#a98bbc"/><path d="m378.031 64.902 14.516 6.769-5.866 15.123-15.49-7.223c-4.051-1.889-5.803-6.704-3.914-10.755 1.888-4.05 6.703-5.803 10.754-3.914z" fill="#a98bbc"/><path d="m323.241 206.159 14.516 6.769-5.866 15.123-15.49-7.223c-4.051-1.889-5.803-6.704-3.914-10.755 1.888-4.05 6.703-5.803 10.754-3.914z" fill="#a98bbc"/><path d="m334.199 177.908 14.516 6.769-5.866 15.123-15.49-7.223c-4.051-1.889-5.803-6.704-3.914-10.755 1.888-4.051 6.703-5.803 10.754-3.914z" fill="#a98bbc"/><path d="m301.325 262.662 14.516 6.769-5.866 15.123-15.49-7.223c-4.051-1.889-5.803-6.704-3.914-10.755 1.888-4.051 6.703-5.803 10.754-3.914z" fill="#a98bbc"/><path d="m312.282 234.411 14.516 6.769-5.866 15.123-15.49-7.223c-4.051-1.889-5.803-6.704-3.914-10.755s6.704-5.803 10.754-3.914z" fill="#a98bbc"/><path d="m361.427 290.688 14.516 6.769c4.051 1.889 5.803 6.704 3.914 10.755s-6.704 5.803-10.755 3.914l-15.49-7.223z" fill="#a98bbc"/><path d="m457.491 41.422c-2.612.552-4.945 1.919-6.749 3.955l-5.65 6.38 1.256-8.429c.4-2.69-.052-5.357-1.308-7.712l-18.99-35.602c.462-.015.927-.008 1.396.039 25.819 2.618 49.994 13.891 68.596 31.987.338.329.642.681.928 1.044z" fill="#6c5475"/><path d="m328.743 287.244c2.128-.673 4.048-1.921 5.551-3.61l5.613-6.305-1.222 8.353c-.328 2.237-.05 4.51.802 6.573l9.54 23.084-7.017 12.764c-4.474-6.585-10.721-12.088-18.46-15.697s-15.971-4.857-23.89-4.051l5.268-13.58z" fill="#6c5475"/><path d="m447.631 47.837-109.046 233.848c-1.777 3.811-5.071 6.702-9.08 7.97l-25.75 8.142 112.93-291.148c1.695-4.369 6.099-7.069 10.762-6.596.534.054 1.063.134 1.596.196l18.229 34.177c2.221 4.165 2.354 9.132.359 13.411z" fill="#543e5b"/><path d="m456.969 38.948 37.898-8.004c.389.368.791.722 1.176 1.097 3.359 3.268 4.122 8.377 1.865 12.483l-150.443 273.656-10.315-24.96c-1.606-3.886-1.509-8.268.269-12.079l109.045-233.849c1.995-4.278 5.886-7.368 10.505-8.344z" fill="#876d93"/><path d="m264.75 511.828c10.756-.378 21.334-1.449 31.693-3.17l-23.622-53.166-17.801 36.426z" fill="#945230"/><path d="m272.822 455.492-17.801 36.426 6.813 13.942c4.946-18.64 25.328-18.093 25.328-18.093z" fill="#7f3e21"/><path d="m256.963 419.797-23.738-53.428c-11.928 1.913-23.085 7.116-32.218 15.023l38.247 78.263z" fill="#945230"/><path d="m247.935 399.479c-7.952 21.646-29.562 17.45-29.562 17.45l20.88 42.726 17.709-39.858z" fill="#7f3e21"/><path d="m310.993 381.392-32.218-15.023c.95-11.283-3.174-22.496-11.219-30.477-2.325-2.307-2.618-5.957-.844-8.71 12.18-18.898 36.745-26.378 57.694-16.61 20.948 9.768 31.009 33.395 24.361 54.873-.969 3.129-3.953 5.25-7.215 4.952-11.286-1.033-22.526 3.015-30.559 10.995z" fill="#fee884"/><path d="m310.993 334.5c4.974-9.641 20.245-9.311 32.535-7.219-4.51-7.031-10.991-12.917-19.122-16.708-20.948-9.768-45.514-2.289-57.694 16.61-1.774 2.753-1.481 6.403.844 8.71 8.046 7.981 12.17 19.193 11.219 30.477l32.218 15.023c3.709-3.685 8.107-6.519 12.873-8.414-1.306-7.255-5.119-12.162-9.19-15.428-6.391-5.128-8.35-14.004-4.593-21.285z" fill="#ffdd40"/><path d="m215.557 508.658c10.36 1.721 20.938 2.792 31.693 3.17l63.743-130.436c-9.133-7.907-20.29-13.11-32.218-15.023z" fill="#ffc839"/><path d="m184.572 32.586c-.172 4.522-.265 9.095-.265 13.716 0 88.286 32.098 159.857 71.694 159.857s71.694-71.57 71.694-159.857c0-4.621-.093-9.194-.265-13.716-22.6-6.878-46.58-10.59-71.429-10.59-24.85 0-48.829 3.712-71.429 10.59z" fill="#9bd8f9"/><path d="m12.75 237.685c-1.146 9.613-1.752 19.392-1.752 29.313 0 97.215 56.628 181.185 138.692 220.769 26.882-52.967-36.695-156.792-69.862-212.007-20.203-33.632-46.351-39.936-67.078-38.075z" fill="#9bd8f9"/><path d="m501.002 266.998c0-9.921-.606-19.7-1.752-29.313-20.726-1.861-46.875 4.443-67.078 38.075-33.168 55.215-96.745 159.039-69.862 212.007 82.064-39.584 138.692-123.554 138.692-220.769z" fill="#9bd8f9"/></g></svg>