<svg id="Layer_1" enable-background="new 0 0 512.161 512.161" height="512" viewBox="0 0 512.161 512.161" width="512" xmlns="http://www.w3.org/2000/svg"><g><path d="m245.002 22.155c-135.311 0-245.002 109.691-245.002 245.002 0 54.66 17.907 105.134 48.164 145.89l52.757 52.267c40.438 29.454 90.225 46.845 144.081 46.845 135.311 0 245.002-109.691 245.002-245.002s-109.691-245.002-245.002-245.002z" fill="#45304c"/><path d="m96.938 377.965c2.09.792 4.051 2.013 5.727 3.689l29.404 29.404c1.067 1.067 1.939 2.255 2.648 3.512.648-5.708 3.15-11.244 7.528-15.622 4.376-4.376 9.908-6.883 15.613-7.534-1.253-.708-2.438-1.578-3.503-2.642l-29.404-29.404c-1.675-1.675-2.896-3.634-3.688-5.723-.442 6.083-2.977 12.041-7.628 16.692-4.653 4.653-10.613 7.187-16.697 7.628z" fill="#7f3e21"/><path d="m411.063 59.781 4.408 12.773 37.227-20.706c2.685-1.405 5.144-.404 6.549 1.001s2.406 3.864 1.02 6.513l-20.725 37.261 12.832 4.429c6.491 2.24 13.644-.615 16.808-6.709l41.887-80.681c4.193-8.077-4.487-16.759-12.565-12.569l-80.728 41.879c-6.097 3.162-8.954 10.316-6.713 16.809z" fill="#ffb332"/><path d="m417.776 42.971c-6.097 3.163-8.954 10.317-6.713 16.81l4.408 12.773 37.227-20.706c-7.093-9.615-4.696-19.679-1.729-26.096z" fill="#ff9433"/><path d="m400.671 166.51 15.826 7.435c5.354 2.515 11.738.354 14.464-4.896l12.932-24.909c3.061-5.896.247-13.14-5.991-15.424l-13.468-4.93z" fill="#ffc839"/><path d="m338.326 95.676 7.536 15.595 42.455-23.614-4.911-13.43c-2.282-6.239-9.525-9.055-15.422-5.996l-24.811 12.871c-5.293 2.745-7.441 9.205-4.847 14.574z" fill="#ff9433"/><path d="m279.262 148.315 39.066-21.729-8.506-15.915c-2.844-5.322-9.445-7.363-14.801-4.582-11.703 6.077-18.709 9.705-23.092 11.973-5.63 2.913-7.639 9.959-4.402 15.409l9.526 16.036c.736-.399 1.466-.804 2.209-1.192z" fill="#ff9433"/><path d="m394.002 240.235c2.269-4.381 5.897-11.383 11.968-23.064 2.8-5.388.716-12.033-4.663-14.849l-15.919-8.334-21.626 38.882c-.411.786-.839 1.559-1.261 2.337l16.154 9.461c5.443 3.188 12.445 1.17 15.347-4.433z" fill="#ffc839"/><path d="m250.96 166.819-9.338-15.159c-3.588-5.825-11.554-6.998-16.689-2.479-6.291 5.536-12.215 11.448-17.751 17.706-3.238 3.66-3.735 8.993-1.166 13.15l12.805 20.724c9.113-12.729 19.9-24.12 32.139-33.942z" fill="#ff9433"/><path d="m362.868 287.215c4.537-5.152 3.335-13.152-2.53-16.721l-15.164-9.227c-9.836 12.233-21.246 23.011-33.995 32.117l20.895 12.756c4.152 2.535 9.455 2.025 13.099-1.197 6.255-5.529 12.162-11.445 17.695-17.728z" fill="#ffc839"/><path d="m191.737 258.069c2.688-9.825 6.135-19.261 10.266-28.261l-8.06-13.545c-4.52-7.596-15.764-7.077-19.449.958-3.15 6.867-5.952 13.953-8.388 21.239-1.322 3.953-.272 8.319 2.675 11.266l24.505 24.505c-2.432-4.927-3.048-10.681-1.549-16.162z" fill="#ff9433"/><path d="m295.833 318.152-13.545-8.06c-9.001 4.131-18.437 7.578-28.262 10.266-5.481 1.5-11.235.884-16.161-1.548l24.505 24.505c2.947 2.947 7.313 3.997 11.266 2.675 7.286-2.437 14.372-5.239 21.239-8.389 8.035-3.685 8.555-14.929.958-19.449z" fill="#ffc839"/><path d="m103.415 380.904c-6.355-6.355-16.753-6.355-23.108 0l-32.143 32.143c14.832 19.979 32.638 37.613 52.757 52.267l31.899-31.899c6.355-6.355 6.355-16.753 0-23.108z" fill="#b26847"/><path d="m103.415 380.904c-6.355-6.355-16.753-6.355-23.108 0l-32.143 32.143c7.594 10.229 15.973 19.839 25.038 28.754.031-5.861 2.429-11.458 6.665-15.514 6.893-6.598 17.429-16.728 23.162-22.462 9-9 19.394-3.914 19.394-3.914z" fill="#945230"/><path d="m220.451 324.874 10.99-10.99-31.601-31.601-10.99 10.99c-6.187 6.187-14.055 10.419-22.627 12.171-8.572 1.752-16.44 5.985-22.626 12.171l-19.397 19.396c-6.355 6.355-6.355 16.753 0 23.108l29.404 29.404c6.355 6.355 16.753 6.355 23.108 0l19.396-19.396c6.186-6.187 10.419-14.055 12.171-22.626 1.753-8.572 5.985-16.44 12.172-22.627z" fill="#b26847"/><path d="m188.849 293.273c-6.187 6.187-14.055 10.419-22.627 12.171s-16.44 5.984-22.626 12.171l-19.396 19.396c-6.355 6.355-6.355 16.753 0 23.108l16.019 16.019c1.158-11.959 6.094-19.666 11.561-24.605 7.622-6.885 19.313-6.609 26.815.407l18.43 17.236c5.686-6.033 9.59-13.535 11.254-21.675 1.752-8.572 5.985-16.44 12.171-22.626l10.99-10.99-31.601-31.601z" fill="#945230"/><path d="m230.811 315.692c6.181 6.181 15.204 8.508 23.636 6.201 48.357-13.231 87.798-44.471 110.725-88.286l96.486-173.473c3.264-6.238-3.46-12.961-9.697-9.697l-173.473 96.487c-43.815 22.927-75.055 62.368-88.286 110.725-2.307 8.432.02 17.455 6.201 23.636z" fill="#ffdd40"/><path d="m451.961 50.437-173.473 96.487c-43.815 22.927-75.055 62.368-88.286 110.725-2.307 8.432.02 17.455 6.201 23.636l9.178 9.178c37.557-34.247 191.905-175.097 210.697-193.889 9.415-9.415 20.776-10.983 30.553-9.784l14.826-26.656c3.265-6.237-3.459-12.96-9.696-9.697z" fill="#ffc839"/><path d="m207.696 275.746 205.782-178.909c2.267-1.971 5.379 1.141 3.408 3.408l-178.909 205.783c-4.751 5.464-13.138 5.757-18.258.637l-12.661-12.661c-5.119-5.12-4.827-13.507.638-18.258z" fill="#fee884"/><g><path d="m201.711 346.793-34.781-34.781c-4.143-4.143-4.143-10.86 0-15.003s10.86-4.143 15.003 0l34.781 34.781c4.143 4.143 4.143 10.86 0 15.004-4.143 4.142-10.86 4.142-15.003-.001z" fill="#c67859"/></g><g fill="#543e5b"><path d="m0 267.157c0 28.984 5.036 56.79 14.278 82.595 76.429 15.749 105.157-55.136 105.157-121.542 0-75.449 54.928-105.551 125.568-149.796 30.165-18.894 38.385-37.833 37.91-53.337-12.356-1.919-25.016-2.922-37.91-2.922-135.312 0-245.003 109.691-245.003 245.002z"/><path d="m490.004 267.157c0-10.061-.62-19.976-1.799-29.72-16.988-5.189-40.884-2.038-64.708 35.998-44.245 70.64-74.347 125.568-149.796 125.568-63.142 0-130.33 25.975-123.246 94.231 29.092 12.186 61.03 18.925 94.546 18.925 135.312 0 245.003-109.691 245.003-245.002z"/></g></g></svg>