<svg viewBox="0 0 512 512" xmlns="http://www.w3.org/2000/svg"><path d="m512 256c0 141.386719-114.613281 256-256 256s-256-114.613281-256-256 114.613281-256 256-256 256 114.613281 256 256zm0 0" fill="#fe3745"/><path d="m157.371094 137.082031c0 8.46875-6.867188 15.335938-15.335938 15.335938h-62.332031c-8.46875 0-15.332031 6.863281-15.332031 15.332031s6.863281 15.332031 15.332031 15.332031h205.332031c8.46875 0 15.332032-6.863281 15.332032-15.332031s6.867187-15.332031 15.335937-15.332031h39.332031c8.46875 0 15.332032-6.867188 15.332032-15.332031 0-8.46875-6.863282-15.335938-15.332032-15.335938h-131.332031c-8.46875 0-15.332031-6.863281-15.332031-15.332031s-6.867188-15.332031-15.335938-15.332031h-75.332031c-8.46875 0-15.332031 6.863281-15.332031 15.332031s6.863281 15.332031 15.332031 15.332031h24.332031c8.46875 0 15.335938 6.863281 15.335938 15.332031zm0 0" fill="#ea2a3d"/><path d="m351.789062 378.621094c0-8.46875 6.863282-15.335938 15.332032-15.335938h62.332031c8.46875 0 15.335937-6.863281 15.335937-15.332031s-6.867187-15.332031-15.335937-15.332031h-245.332031c-8.46875 0-15.332032 6.863281-15.332032 15.332031s-6.863281 15.332031-15.332031 15.332031h-39.335937c-8.464844 0-15.332032 6.867188-15.332032 15.332032 0 8.46875 6.867188 15.335937 15.332032 15.335937h101.335937c8.46875 0 15.332031 6.863281 15.332031 15.332031s6.863282 15.332032 15.332032 15.332032h145.332031c8.46875 0 15.335937-6.863282 15.335937-15.332032s-6.867187-15.332031-15.335937-15.332031h-24.332031c-8.46875 0-15.332032-6.863281-15.332032-15.332031zm0 0" fill="#ea2a3d"/><path d="m266.597656 276.796875-31.394531-31.394531 237.730469-218.53125c3.410156-3.089844 8.648437-2.964844 11.902344.292968 3.253906 3.253907 3.382812 8.492188.292968 11.902344zm0 0" fill="#d9eafc"/><path d="m484.835938 27.164062c-3.253907-3.253906-8.492188-3.382812-11.902344-.292968l-237.730469 218.53125 15.699219 15.695312zm0 0" fill="#c3ddf4"/><path d="m218.070312 237.589844-38.832031-21.527344 133.019531-212.015625c2.433594-3.886719 7.484376-5.1875 11.496094-2.960937l.074219.039062c4.011719 2.226562 5.582031 7.195312 3.578125 11.320312zm0 0" fill="#d9eafc"/><path d="m323.789062 1.105469-.035156-.019531c-4.011718-2.226563-9.0625-.925782-11.496094 2.960937l-133.019531 212.015625 19.414063 10.761719zm0 0" fill="#c3ddf4"/><path d="m274.410156 293.929688 21.527344 38.832031 212.015625-133.019531c3.886719-2.433594 5.183594-7.484376 2.960937-11.496094l-.042968-.074219c-2.222656-4.011719-7.191406-5.582031-11.316406-3.578125zm0 0" fill="#d9eafc"/><path d="m510.875 188.171875c-2.222656-4.011719-7.195312-5.582031-11.320312-3.578125l-225.144532 109.335938 10.765625 19.417968 225.738281-125.101562zm0 0" fill="#c3ddf4"/><path d="m93.5625 275.953125 26.414062-26.414063 142.480469 142.480469-26.417969 26.414063zm0 0"/><path d="m93.089844 248.507812-34.800782 34.800782c-2.824218 2.828125-2.824218 7.414062 0 10.242187 2.207032 2.207031 5.578126 2.75 8.367188 1.351563l30.546875-15.304688 13.488281-13.488281c37.335938-37.335937 97.867188-37.335937 135.199219 0 37.335937 37.335937 37.335937 97.867187 0 135.199219l-13.488281 13.488281-15.304688 30.546875c-1.398437 2.789062-.851562 6.160156 1.351563 8.367188 2.828125 2.828124 7.414062 2.828124 10.246093 0l34.796876-34.800782c47.058593-47.054687 47.058593-123.347656 0-170.402344-47.054688-47.058593-123.347657-47.058593-170.402344 0zm0 0" fill="#232323"/><path d="m234.96875 341.394531 7.796875-7.796875c6.882813-6.882812 7.515625-18.097656.964844-25.296875-6.996094-7.6875-18.90625-7.898437-26.171875-.632812l8.160156-8.160157c7.265625-7.265624 7.054688-19.175781-.632812-26.171874-7.199219-6.550782-18.410157-5.917969-25.296876.964843l-7.796874 7.800781c7.265624-7.265624 7.054687-19.175781-.632813-26.171874-7.199219-6.550782-18.414063-5.917969-25.296875.964843l-45.777344 45.78125-20.300781-20.300781-19.039063 19.039062c-6.777343 6.777344-10.6875 15.898438-10.925781 25.480469l-1.117187 44.710938c-.1875 7.589843-3.289063 14.8125-8.65625 20.179687l-12.757813 12.761719c24.34375 34.109375 56.855469 61.980469 94.667969 80.789063l118.015625-118.015626c6.882813-6.882812 7.515625-18.09375.964844-25.292968-6.992188-7.6875-18.90625-7.898438-26.167969-.632813zm0 0" fill="#ffc987"/></svg>