<svg height="511pt" viewBox="0 -8 511.99979 511" width="511pt" xmlns="http://www.w3.org/2000/svg"><path d="m482.328125 67.394531c-114.523437 20.117188-178.878906-27.441406-207.691406-58.707031-10.0625-10.917969-27.210938-10.917969-37.273438 0-28.8125 31.265625-93.171875 78.824219-207.695312 58.707031-15.960938-2.804687-30.417969 10.03125-29.636719 26.222657 3.824219 79.289062 34.644531 283.59375 243.65625 399.421874 7.65625 4.242188 16.96875 4.242188 24.625 0 209.011719-115.828124 239.832031-320.132812 243.65625-399.421874.78125-16.191407-13.675781-29.027344-29.640625-26.222657zm0 0" fill="#423e4f"/><path d="m256 250.832031 27.839844 87.722657-27.839844 110.238281c-93.3125-54.523438-145.753906-128.835938-175.109375-197.960938l87.554687-22.515625zm0 0" fill="#69a2de"/><path d="m465.730469 114.734375c-3.574219 35.4375-12.617188 84.3125-34.621094 136.097656l-86.394531 26.484375-88.714844-26.484375-32.296875-90.449219 32.296875-107.511718c31.347656 28.464844 87.632812 63.878906 173.460938 63.878906h.023437c11.800781 0 23.917969-.679688 36.246094-2.015625zm0 0" fill="#69a2de"/><path d="m260.257812 431.925781c-76.847656-52.417969-122.03125-118.851562-148.460937-181.09375-1.019531-2.402343-2.003906-4.796875-2.972656-7.183593l-27.933594 7.183593c24.769531 58.324219 65.972656 120.339844 134.296875 171.046875 13.09375 9.71875 26.734375 18.6875 40.8125 26.914063zm0 0" fill="#007dcf"/><path d="m256 52.871094v197.960937h-175.109375c-22.003906-51.785156-31.046875-100.660156-34.621094-136.097656 12.328125 1.335937 24.453125 2.015625 36.246094 2.015625 85.863281 0 142.125-35.414062 173.484375-63.878906zm0 0" fill="#fd5f7e"/><path d="m431.109375 250.832031c-29.355469 69.125-81.796875 143.4375-175.109375 197.960938v-197.960938zm0 0" fill="#fd5f7e"/><g fill="#f5385d"><path d="m256 448.792969c.003906-.003907.011719-.007813.019531-.011719 2.574219-1.503906 5.117188-3.027344 7.632813-4.566406.082031-.046875.164062-.097656.246094-.148438 2.550781-1.5625 5.066406-3.132812 7.554687-4.722656-5.292969-3.382812-10.441406-6.828125-15.453125-10.335938zm0 0"/><path d="m80.890625 250.832031h30.90625c-21.601563-50.835937-30.707031-98.859375-34.417969-134.128906-2.539062-.042969-18.492187-.949219-23.90625-1.265625-2.394531-.214844-4.796875-.441406-7.203125-.703125.109375 1.109375.226563 2.230469.351563 3.363281 1.972656 18.234375 5.003906 36.355469 9.050781 54.246094 5.496094 24.289062 13.527344 50.976562 25.21875 78.488281zm0 0"/></g></svg>