<?xml version="1.0" encoding="UTF-8"?>
<svg width="480px" height="479px" viewBox="0 0 480 479" version="1.1" xmlns="http://www.w3.org/2000/svg" xmlns:xlink="http://www.w3.org/1999/xlink">
    <title>flecha</title>
    <g id="Page-1" stroke="none" stroke-width="1" fill="none" fill-rule="evenodd">
        <g id="Android" transform="translate(37.000000, -81.000000)" fill-rule="nonzero">
            <g id="flecha" transform="translate(203.000000, 320.500000) rotate(315.000000) translate(-203.000000, -320.500000) translate(34.000000, 151.000000)">
                <path d="M317.10675,238.529663 L291.824463,213.247375 C286.737793,208.163453 279.841125,205.301514 272.647828,205.301514 L223.569153,205.301514 L255.36908,255.478821 L261.801575,259.499817 L294.079407,253.641357 L317.10675,238.529663 Z" id="Path" fill="#F9CF99"></path>
                <path d="M261.801575,259.499817 L290.440186,269.579773 L330.792969,269.579773 C337.200744,269.579773 340.408752,261.831665 335.879639,257.302551 L317.10675,238.529663 L261.801575,259.499817 Z" id="Path" fill="#F77F82"></path>
                <path d="M238.419922,317.216492 L213.137634,291.934204 C208.050965,286.850281 205.189026,279.950867 205.189026,272.757568 L205.189026,223.678894 L255.36908,255.478821 L259.390076,261.911316 L253.531617,294.189148 L238.419922,317.216492 Z" id="Path" fill="#F9CF99"></path>
                <path d="M259.390076,261.911316 L269.470032,290.549926 L269.470032,330.905457 C269.470032,337.310486 261.721924,340.518494 257.19281,335.98938 L238.419922,317.216492 L259.390076,261.911316 Z" id="Path" fill="#F77F82"></path>
                <path d="M57.3377689,36.4801022 L290.437439,269.579773 C293.280152,272.425232 293.280152,277.036743 290.437439,279.879455 L279.769715,290.54718 C276.927002,293.389893 272.315491,293.389893 269.470032,290.54718 L36.3703613,57.4475098 L57.3377689,36.4801022 Z" id="Path" fill="#C68C6A"></path>
                <polygon id="Path" fill="#A67052" points="57.3377689 36.4801022 36.3703613 57.4475098 72.6224977 93.6996462 78.1980589 78.3078005 93.5899046 72.7322386"></polygon>
                <path d="M61.2324219,61.3421634 L100.398682,47.1533203 C107.866638,43.8876345 107.012451,33.0303952 99.127014,30.970459 L7.93774414,0.557556328 C3.39764422,-0.628967109 -0.738708672,3.50738508 0.445068359,8.047485 L30.8607181,99.2367555 C32.9206543,107.122192 43.7778929,107.976379 47.0435788,100.508423 L61.2324219,61.3421634 Z" id="Path" fill="#D2D2D2"></path>
            </g>
        </g>
    </g>
</svg>