<?xml version="1.0" encoding="UTF-8"?>
<svg width="960px" height="600px" viewBox="0 0 960 600" version="1.1" xmlns="http://www.w3.org/2000/svg" xmlns:xlink="http://www.w3.org/1999/xlink">
    <title>Nexus 7 Copy</title>
    <g id="Nexus-7-Copy" stroke="none" stroke-width="1" fill="none" fill-rule="evenodd">
        <g id="up" transform="translate(448.000000, 300.000000) rotate(90.000000) translate(-448.000000, -300.000000) translate(192.000000, 44.000000)" fill="#6F8B9A" fill-rule="nonzero">
            <path d="M453.333333,0 L58.6666667,0 C26.304,0 0,26.304 0,58.6666667 L0,453.333333 C0,485.696 26.304,512 58.6666667,512 L453.333333,512 C485.696,512 512,485.696 512,453.333333 L512,58.6666667 C512,26.304 485.696,0 453.333333,0 Z M360.490667,333.397333 C357.632,338.304 352.362667,341.333333 346.666667,341.333333 L165.333333,341.333333 C159.637333,341.333333 154.368,338.304 151.509333,333.397333 C148.650667,328.490667 148.608,322.389333 151.424,317.44 L242.090667,157.44 C247.765333,147.434667 264.256,147.434667 269.930667,157.44 L360.597333,317.44 C363.392,322.389333 363.349333,328.469333 360.490667,333.397333 Z" id="Shape"></path>
        </g>
        <g id="up" transform="translate(448.000000, 299.500000) rotate(90.000000) translate(-448.000000, -299.500000) translate(214.000000, 66.000000)" fill-rule="nonzero">
            <path d="M414.375,0 L53.625,0 C24.0435,0 0,23.992125 0,53.5104167 L0,413.489583 C0,443.007875 24.0435,467 53.625,467 L414.375,467 C443.9565,467 468,443.007875 468,413.489583 L468,53.5104167 C468,23.992125 443.9565,0 414.375,0 Z M336.320269,308.903879 C333.537328,313.702686 328.407579,316.665428 322.862465,316.665428 L146.332625,316.665428 C140.787512,316.665428 135.657762,313.702686 132.874821,308.903879 C130.09188,304.105072 130.050344,298.137861 132.791748,293.297325 L221.056668,136.814493 C226.581014,127.0291 242.634845,127.0291 248.159191,136.814493 L336.424111,293.297325 C339.144747,298.137861 339.10321,304.084208 336.320269,308.903879 Z" id="Shape" fill="#82A1B1"></path>
            <path d="M336.320269,308.903879 C333.537328,313.702686 328.407579,316.665428 322.862465,316.665428 L146.332625,316.665428 C140.787512,316.665428 135.657762,313.702686 132.874821,308.903879 C130.09188,304.105072 130.050344,298.137861 132.791748,293.297325 L221.056668,136.814493 C226.581014,127.0291 242.634845,127.0291 248.159191,136.814493 L336.424111,293.297325 C339.144747,298.137861 339.10321,304.084208 336.320269,308.903879 Z" id="Path" fill="#FFFFFF"></path>
        </g>
    </g>
</svg>